<mxfile host="app.diagrams.net" agent="Mozilla/5.0 (Windows NT 10.0; Win64; x64) AppleWebKit/537.36 (KHTML, like Gecko) Chrome/134.0.0.0 Safari/537.36" version="26.1.1">
  <diagram name="Page-1" id="OIsEWJdos8I4T1qHSX9r">
    <mxGraphModel dx="1434" dy="1844" grid="1" gridSize="10" guides="1" tooltips="1" connect="1" arrows="1" fold="1" page="1" pageScale="1" pageWidth="850" pageHeight="1100" math="0" shadow="0">
      <root>
        <mxCell id="0" />
        <mxCell id="1" parent="0" />
        <mxCell id="l9x3Q6pwmV3n64cEdbr4-22" style="rounded=0;orthogonalLoop=1;jettySize=auto;html=1;entryX=0;entryY=0.5;entryDx=0;entryDy=0;exitX=0.5;exitY=0.5;exitDx=0;exitDy=0;exitPerimeter=0;" edge="1" parent="1" source="l9x3Q6pwmV3n64cEdbr4-1" target="l9x3Q6pwmV3n64cEdbr4-10">
          <mxGeometry relative="1" as="geometry" />
        </mxCell>
        <mxCell id="l9x3Q6pwmV3n64cEdbr4-24" style="rounded=0;orthogonalLoop=1;jettySize=auto;html=1;entryX=0;entryY=0.5;entryDx=0;entryDy=0;exitX=0.5;exitY=0.5;exitDx=0;exitDy=0;exitPerimeter=0;" edge="1" parent="1" source="l9x3Q6pwmV3n64cEdbr4-1" target="l9x3Q6pwmV3n64cEdbr4-6">
          <mxGeometry relative="1" as="geometry" />
        </mxCell>
        <mxCell id="l9x3Q6pwmV3n64cEdbr4-30" style="edgeStyle=none;rounded=0;orthogonalLoop=1;jettySize=auto;html=1;entryX=0;entryY=0.5;entryDx=0;entryDy=0;exitX=0.5;exitY=0.5;exitDx=0;exitDy=0;exitPerimeter=0;" edge="1" parent="1" source="l9x3Q6pwmV3n64cEdbr4-1" target="l9x3Q6pwmV3n64cEdbr4-8">
          <mxGeometry relative="1" as="geometry" />
        </mxCell>
        <mxCell id="l9x3Q6pwmV3n64cEdbr4-31" style="edgeStyle=none;rounded=0;orthogonalLoop=1;jettySize=auto;html=1;entryX=0;entryY=0.5;entryDx=0;entryDy=0;exitX=0.5;exitY=0.5;exitDx=0;exitDy=0;exitPerimeter=0;" edge="1" parent="1" source="l9x3Q6pwmV3n64cEdbr4-1" target="l9x3Q6pwmV3n64cEdbr4-9">
          <mxGeometry relative="1" as="geometry" />
        </mxCell>
        <mxCell id="l9x3Q6pwmV3n64cEdbr4-1" value="Guest User" style="shape=umlActor;verticalLabelPosition=bottom;verticalAlign=top;html=1;outlineConnect=0;" vertex="1" parent="1">
          <mxGeometry x="10" y="85" width="90" height="135" as="geometry" />
        </mxCell>
        <mxCell id="l9x3Q6pwmV3n64cEdbr4-33" style="edgeStyle=none;rounded=0;orthogonalLoop=1;jettySize=auto;html=1;entryX=0;entryY=0.5;entryDx=0;entryDy=0;exitX=0.5;exitY=0.5;exitDx=0;exitDy=0;exitPerimeter=0;" edge="1" parent="1" source="l9x3Q6pwmV3n64cEdbr4-2" target="l9x3Q6pwmV3n64cEdbr4-6">
          <mxGeometry relative="1" as="geometry" />
        </mxCell>
        <mxCell id="l9x3Q6pwmV3n64cEdbr4-35" style="edgeStyle=none;rounded=0;orthogonalLoop=1;jettySize=auto;html=1;entryX=0;entryY=0.5;entryDx=0;entryDy=0;exitX=0.5;exitY=0.5;exitDx=0;exitDy=0;exitPerimeter=0;" edge="1" parent="1" source="l9x3Q6pwmV3n64cEdbr4-2" target="l9x3Q6pwmV3n64cEdbr4-9">
          <mxGeometry relative="1" as="geometry" />
        </mxCell>
        <mxCell id="l9x3Q6pwmV3n64cEdbr4-36" style="edgeStyle=none;rounded=0;orthogonalLoop=1;jettySize=auto;html=1;entryX=0;entryY=0.5;entryDx=0;entryDy=0;exitX=0.5;exitY=0.5;exitDx=0;exitDy=0;exitPerimeter=0;" edge="1" parent="1" source="l9x3Q6pwmV3n64cEdbr4-2" target="l9x3Q6pwmV3n64cEdbr4-11">
          <mxGeometry relative="1" as="geometry" />
        </mxCell>
        <mxCell id="l9x3Q6pwmV3n64cEdbr4-37" style="edgeStyle=none;rounded=0;orthogonalLoop=1;jettySize=auto;html=1;entryX=0;entryY=0.5;entryDx=0;entryDy=0;exitX=0.5;exitY=0.5;exitDx=0;exitDy=0;exitPerimeter=0;" edge="1" parent="1" source="l9x3Q6pwmV3n64cEdbr4-2" target="l9x3Q6pwmV3n64cEdbr4-12">
          <mxGeometry relative="1" as="geometry" />
        </mxCell>
        <mxCell id="l9x3Q6pwmV3n64cEdbr4-38" style="edgeStyle=none;rounded=0;orthogonalLoop=1;jettySize=auto;html=1;entryX=0;entryY=0.5;entryDx=0;entryDy=0;exitX=0.5;exitY=0.5;exitDx=0;exitDy=0;exitPerimeter=0;" edge="1" parent="1" source="l9x3Q6pwmV3n64cEdbr4-2" target="l9x3Q6pwmV3n64cEdbr4-14">
          <mxGeometry relative="1" as="geometry" />
        </mxCell>
        <mxCell id="l9x3Q6pwmV3n64cEdbr4-39" style="edgeStyle=none;rounded=0;orthogonalLoop=1;jettySize=auto;html=1;entryX=0;entryY=0.5;entryDx=0;entryDy=0;exitX=0.5;exitY=0.5;exitDx=0;exitDy=0;exitPerimeter=0;" edge="1" parent="1" source="l9x3Q6pwmV3n64cEdbr4-2" target="l9x3Q6pwmV3n64cEdbr4-15">
          <mxGeometry relative="1" as="geometry" />
        </mxCell>
        <mxCell id="l9x3Q6pwmV3n64cEdbr4-2" value="Account User" style="shape=umlActor;verticalLabelPosition=bottom;verticalAlign=top;html=1;outlineConnect=0;" vertex="1" parent="1">
          <mxGeometry x="10" y="340" width="100" height="140" as="geometry" />
        </mxCell>
        <mxCell id="l9x3Q6pwmV3n64cEdbr4-40" style="edgeStyle=none;rounded=0;orthogonalLoop=1;jettySize=auto;html=1;entryX=1;entryY=0.5;entryDx=0;entryDy=0;exitX=0.5;exitY=0.5;exitDx=0;exitDy=0;exitPerimeter=0;" edge="1" parent="1" source="l9x3Q6pwmV3n64cEdbr4-3" target="l9x3Q6pwmV3n64cEdbr4-19">
          <mxGeometry relative="1" as="geometry" />
        </mxCell>
        <mxCell id="l9x3Q6pwmV3n64cEdbr4-41" style="edgeStyle=none;rounded=0;orthogonalLoop=1;jettySize=auto;html=1;entryX=1;entryY=0.5;entryDx=0;entryDy=0;exitX=0.5;exitY=0.5;exitDx=0;exitDy=0;exitPerimeter=0;" edge="1" parent="1" source="l9x3Q6pwmV3n64cEdbr4-3" target="l9x3Q6pwmV3n64cEdbr4-21">
          <mxGeometry relative="1" as="geometry" />
        </mxCell>
        <mxCell id="l9x3Q6pwmV3n64cEdbr4-42" style="edgeStyle=none;rounded=0;orthogonalLoop=1;jettySize=auto;html=1;entryX=1;entryY=0.5;entryDx=0;entryDy=0;exitX=0.5;exitY=0.5;exitDx=0;exitDy=0;exitPerimeter=0;" edge="1" parent="1" source="l9x3Q6pwmV3n64cEdbr4-3" target="l9x3Q6pwmV3n64cEdbr4-17">
          <mxGeometry relative="1" as="geometry" />
        </mxCell>
        <mxCell id="l9x3Q6pwmV3n64cEdbr4-48" style="edgeStyle=none;rounded=0;orthogonalLoop=1;jettySize=auto;html=1;entryX=1;entryY=0.5;entryDx=0;entryDy=0;exitX=0.5;exitY=0.5;exitDx=0;exitDy=0;exitPerimeter=0;" edge="1" parent="1" source="l9x3Q6pwmV3n64cEdbr4-3" target="l9x3Q6pwmV3n64cEdbr4-9">
          <mxGeometry relative="1" as="geometry" />
        </mxCell>
        <mxCell id="l9x3Q6pwmV3n64cEdbr4-4" value="" style="rounded=0;whiteSpace=wrap;html=1;fillColor=none;" vertex="1" parent="1">
          <mxGeometry x="161" y="-25" width="525" height="600" as="geometry" />
        </mxCell>
        <mxCell id="l9x3Q6pwmV3n64cEdbr4-57" style="edgeStyle=none;rounded=0;orthogonalLoop=1;jettySize=auto;html=1;exitX=0.5;exitY=0.5;exitDx=0;exitDy=0;exitPerimeter=0;entryX=1;entryY=0.5;entryDx=0;entryDy=0;" edge="1" parent="1" source="l9x3Q6pwmV3n64cEdbr4-3" target="l9x3Q6pwmV3n64cEdbr4-56">
          <mxGeometry relative="1" as="geometry" />
        </mxCell>
        <mxCell id="l9x3Q6pwmV3n64cEdbr4-3" value="Administrative User" style="shape=umlActor;verticalLabelPosition=bottom;verticalAlign=top;html=1;outlineConnect=0;" vertex="1" parent="1">
          <mxGeometry x="730" y="230" width="100" height="130" as="geometry" />
        </mxCell>
        <mxCell id="l9x3Q6pwmV3n64cEdbr4-6" value="Search and Filter Trails" style="ellipse;whiteSpace=wrap;html=1;" vertex="1" parent="1">
          <mxGeometry x="320" y="80" width="150" height="40" as="geometry" />
        </mxCell>
        <mxCell id="l9x3Q6pwmV3n64cEdbr4-8" value="View content" style="ellipse;whiteSpace=wrap;html=1;" vertex="1" parent="1">
          <mxGeometry x="335" y="132.5" width="120" height="40" as="geometry" />
        </mxCell>
        <mxCell id="l9x3Q6pwmV3n64cEdbr4-9" value="Flag content" style="ellipse;whiteSpace=wrap;html=1;" vertex="1" parent="1">
          <mxGeometry x="325" y="190" width="120" height="40" as="geometry" />
        </mxCell>
        <mxCell id="l9x3Q6pwmV3n64cEdbr4-10" value="Register Account" style="ellipse;whiteSpace=wrap;html=1;" vertex="1" parent="1">
          <mxGeometry x="260" y="20" width="120" height="40" as="geometry" />
        </mxCell>
        <mxCell id="l9x3Q6pwmV3n64cEdbr4-11" value="Manage profile" style="ellipse;whiteSpace=wrap;html=1;" vertex="1" parent="1">
          <mxGeometry x="325" y="290" width="120" height="40" as="geometry" />
        </mxCell>
        <mxCell id="l9x3Q6pwmV3n64cEdbr4-12" value="Submit and Edit Trails" style="ellipse;whiteSpace=wrap;html=1;" vertex="1" parent="1">
          <mxGeometry x="315" y="350" width="140" height="40" as="geometry" />
        </mxCell>
        <mxCell id="l9x3Q6pwmV3n64cEdbr4-14" value="Review and Rate Trails" style="ellipse;whiteSpace=wrap;html=1;" vertex="1" parent="1">
          <mxGeometry x="305" y="400" width="150" height="40" as="geometry" />
        </mxCell>
        <mxCell id="l9x3Q6pwmV3n64cEdbr4-15" value="Comment Trails" style="ellipse;whiteSpace=wrap;html=1;" vertex="1" parent="1">
          <mxGeometry x="320" y="450" width="120" height="30" as="geometry" />
        </mxCell>
        <mxCell id="l9x3Q6pwmV3n64cEdbr4-17" value="Approve/Disapprove Trail" style="ellipse;whiteSpace=wrap;html=1;" vertex="1" parent="1">
          <mxGeometry x="482.5" y="340" width="160" height="50" as="geometry" />
        </mxCell>
        <mxCell id="l9x3Q6pwmV3n64cEdbr4-19" value="Manage Users" style="ellipse;whiteSpace=wrap;html=1;" vertex="1" parent="1">
          <mxGeometry x="530" y="90" width="100" height="50" as="geometry" />
        </mxCell>
        <mxCell id="l9x3Q6pwmV3n64cEdbr4-21" value="Review and Respond to Flags" style="ellipse;whiteSpace=wrap;html=1;" vertex="1" parent="1">
          <mxGeometry x="470" y="270" width="185" height="50" as="geometry" />
        </mxCell>
        <mxCell id="l9x3Q6pwmV3n64cEdbr4-34" style="edgeStyle=none;rounded=0;orthogonalLoop=1;jettySize=auto;html=1;entryX=0.058;entryY=0.325;entryDx=0;entryDy=0;entryPerimeter=0;exitX=0.5;exitY=0.5;exitDx=0;exitDy=0;exitPerimeter=0;" edge="1" parent="1" source="l9x3Q6pwmV3n64cEdbr4-2" target="l9x3Q6pwmV3n64cEdbr4-8">
          <mxGeometry relative="1" as="geometry" />
        </mxCell>
        <mxCell id="l9x3Q6pwmV3n64cEdbr4-56" value="Moderate Comments" style="ellipse;whiteSpace=wrap;html=1;" vertex="1" parent="1">
          <mxGeometry x="482.5" y="410" width="160" height="50" as="geometry" />
        </mxCell>
      </root>
    </mxGraphModel>
  </diagram>
</mxfile>
